Coordinates
version=1
nRows=19
nColumns=36
inDegrees=yes

Units are S.I. units (second, meters, Newtons, ...)
If the header above contains a line with 'inDegrees', this indicates whether rotational values are in degrees (yes) or radians (no).

endheader
time	pelvis_tilt	pelvis_list	pelvis_rotation	pelvis_tx	pelvis_ty	pelvis_tz	hip_flexion_r	hip_adduction_r	hip_rotation_r	knee_angle_r	knee_angle_r_beta	ankle_angle_r	subtalar_angle_r	mtp_angle_r	hip_flexion_l	hip_adduction_l	hip_rotation_l	knee_angle_l	knee_angle_l_beta	ankle_angle_l	subtalar_angle_l	mtp_angle_l	lumbar_extension	lumbar_bending	lumbar_rotation	arm_flex_r	arm_add_r	arm_rot_r	elbow_flex_r	pro_sup_r	arm_flex_l	arm_add_l	arm_rot_l	elbow_flex_l	pro_sup_l
      0.00000000	      5.67117543	      1.30498406	     14.95742165	     -0.13560857	      1.30319943	      0.35232180	    -10.31447275	     -1.54733071	     -4.04588061	      1.89859638	      0.03313676	     19.58020847	      6.45487266	     -6.85376491	    -10.84218905	     -1.05046739	      0.93171519	      1.97188581	      0.03441590	     26.28052730	     12.20340371	     -6.85376491	     -0.23358819	     -1.12096067	      0.00409122	    -29.96309474	    -39.22178431	     26.15583345	     83.84470739	     64.75810437	    -33.40539534	    -37.21956208	     18.33303819	     92.38005897	     70.14771256
      0.01666670	      5.11819333	      1.01890809	     15.15587670	     -0.12908349	      1.29960018	      0.34779501	    -10.41081885	     -1.43720241	     -2.48598750	      1.37973856	      0.02408098	     20.92336052	      6.14628780	     -6.88339889	    -10.90871208	     -1.09550175	      2.68681114	      0.86131944	      0.01503286	     26.53833041	     11.08578329	     -6.88339889	      1.42260020	     -0.80360236	     -0.56207032	    -32.92201870	    -39.73182426	     22.08829589	     88.07158674	     64.73672387	    -36.90486323	    -35.06947920	     14.40061630	     95.23497111	     70.45146839
      0.03333330	      4.86950697	      0.74539610	     15.42236245	     -0.12982733	      1.30118285	      0.34714358	    -10.06821095	     -1.20495308	     -1.86533084	      1.30942955	      0.02285386	     21.26710384	      6.63095324	     -7.15588032	    -10.80342027	     -1.23046490	      3.17731361	      0.45862479	      0.00800451	     26.62546940	     10.90486648	     -7.15588032	      2.17532238	     -0.52011109	     -1.03699903	    -33.43493318	    -39.52832708	     21.19746286	     88.23789940	     68.81444176	    -37.42584912	    -34.06017094	     12.96455802	     94.62730955	     74.56392219
      0.05000000	      4.76772153	      0.72599764	     15.55105188	     -0.13136166	      1.30094175	      0.34690127	     -9.91497771	     -1.33132737	     -1.86892686	      1.40161885	      0.02446286	     21.31094429	      6.99731596	     -7.16332228	    -10.71446821	     -1.15146791	      2.94234974	      0.37653004	      0.00657169	     26.48641195	     10.81331740	     -7.16332228	      2.46598154	     -0.56009253	     -1.27082512	    -33.17215973	    -39.24940044	     20.71254817	     88.08520343	     68.98193864	    -37.12245261	    -33.40544242	     12.60865031	     93.85747034	     74.60344222
      0.06666670	      4.95851417	      0.89821404	     15.46274418	     -0.14116170	      1.30136369	      0.34425162	     -9.93220877	     -1.55082185	     -1.65784980	      1.57111146	      0.02742107	     21.53948027	      7.23388389	     -7.16799568	    -10.84588795	     -0.90409393	      2.77687048	      0.36267126	      0.00632981	     26.30444426	     10.85290498	     -7.16799568	      2.14849017	     -0.68288849	     -1.22991599	    -32.45972759	    -39.04246185	     20.45222987	     87.66108500	     69.12975807	    -36.32905877	    -32.95970450	     12.42660798	     93.31350716	     74.63900651
      0.08333330	      5.35697457	      1.00332501	     15.50225240	     -0.13361721	      1.30248352	      0.34746429	    -10.33461088	     -1.56848629	     -1.59340529	      1.71722115	      0.02997116	     21.57260009	      7.27773315	     -7.17421627	    -11.20322224	     -0.89164780	      2.42543706	      0.35236501	      0.00614993	     26.06775467	     11.02091217	     -7.17421627	      1.72485502	     -0.67263948	     -1.04144746	    -31.98795709	    -39.10169608	     20.37526176	     87.57846859	     69.42954678	    -36.21901242	    -32.96053763	     12.40601254	     93.44220148	     74.67839297
      0.10000000	      5.53444809	      1.19081769	     15.56093604	     -0.14273102	      1.30290672	      0.34482936	    -10.41500376	     -1.75636600	     -1.64596881	      1.85294209	      0.03233994	     21.45934431	      7.25286685	     -7.18151299	    -11.27770148	     -0.71051889	      2.20893155	      0.35502710	      0.00619639	     25.83604490	     11.35274234	     -7.18151299	      1.14454381	     -0.73314223	     -0.97499959	    -31.16689462	    -39.00926964	     20.57832393	     87.19875682	     69.83010616	    -35.38776718	    -32.61980863	     12.35504429	     93.04881474	     74.72647952
      0.11666670	      5.55968494	      1.20629474	     15.55419657	     -0.14197649	      1.30312919	      0.35166880	    -10.29032087	     -1.75745319	     -1.70756412	      2.01739658	      0.03521021	     21.33661564	      7.22493272	     -7.18283319	    -11.18755606	     -0.70614518	      2.04102674	      0.38316604	      0.00668751	     25.63943804	     11.38829972	     -7.18283319	      0.84640618	     -0.77045805	     -0.97241131	    -30.79494577	    -38.96927454	     20.53318724	     87.14299972	     69.89363491	    -34.91903007	    -32.55248584	     12.20026800	     93.04922875	     74.72242678
      0.13333330	      5.86477182	      1.31223842	     15.46780990	     -0.14224529	      1.30139017	      0.35205716	    -10.47794005	     -1.78794049	     -1.64160024	      2.13718614	      0.03730093	     21.17144610	      7.07872708	     -7.22817169	    -11.46835054	     -0.68829082	      1.63744769	      0.38489121	      0.00671762	     25.32955234	     11.69352238	     -7.22817169	      0.12114836	     -0.84083579	     -0.94142246	    -30.32114249	    -38.99858958	     20.88860346	     86.87547539	     69.99770718	    -34.63134145	    -32.47383729	     11.96112045	     93.07920116	     74.01242212
      0.15000000	      6.01910150	      1.35611698	     15.44437148	     -0.14270346	      1.30150990	      0.35243143	    -10.52883226	     -1.77180668	     -1.55729730	      2.17599001	      0.03797819	     20.99573874	      6.83551161	     -7.26163939	    -11.58167186	     -0.70640936	      1.52265958	      0.39944113	      0.00697156	     25.10485959	     11.79367062	     -7.26163939	     -0.33516262	     -0.85701703	     -0.85605777	    -30.01974142	    -39.03363249	     20.98403067	     87.03384902	     69.71758091	    -34.65827417	    -32.61991646	     11.75538317	     93.62795648	     73.16689914
      0.16666670	      6.11920191	      1.46322619	     15.43853889	     -0.13417552	      1.30445799	      0.34849247	    -10.72812776	     -1.85766201	     -1.85024031	      2.16239643	      0.03774094	     20.94198523	      7.14641298	     -7.33222109	    -11.75914349	     -0.64683480	      1.43574558	      0.40078956	      0.00699510	     24.74677382	     11.77947201	     -7.33222109	     -0.54308417	     -1.02292299	     -1.45909981	    -29.44276440	    -39.32022371	     21.43889867	     87.00709958	     72.97846497	    -36.08378782	    -31.94626220	      9.95314729	     94.31486389	     73.96589260
      0.18333330	      6.18533697	      1.50545996	     15.39917914	     -0.13496575	      1.30188420	      0.34905158	    -10.90118506	     -1.88099745	     -1.88678945	      2.12449118	      0.03707937	     20.76913684	      6.94281721	     -7.34498368	    -11.90766563	     -0.63278306	      1.31930722	      0.39980039	      0.00697783	     24.59739465	     11.96824548	     -7.34498368	     -0.66204972	     -1.02594265	     -1.30977261	    -29.58645224	    -39.34242245	     21.46955362	     87.21800085	     72.82066647	    -36.38244922	    -32.01768276	      9.81969498	     94.68060059	     73.68640666
      0.20000000	      6.26403708	      1.55787327	     15.41315160	     -0.13470831	      1.30221275	      0.34902115	    -11.10220351	     -1.90095481	     -1.96990068	      2.17935431	      0.03803691	     20.71962129	      6.86339302	     -7.35497553	    -12.07920832	     -0.61227368	      1.23161265	      0.40005704	      0.00698231	     24.46516793	     12.05479941	     -7.35497553	     -0.81613234	     -1.06044995	     -1.34644610	    -29.65903494	    -39.35022996	     21.52330272	     87.42708818	     72.46398191	    -36.58562096	    -32.09809351	      9.72827259	     94.89380892	     73.19365686
      0.21666670	      6.18143137	      1.51978586	     15.41077436	     -0.14267271	      1.30172501	      0.35281172	    -10.98574555	     -1.85822560	     -2.03170211	      2.14193928	      0.03738389	     20.72391700	      6.82071167	     -7.35511352	    -11.98698514	     -0.63253688	      1.25954689	      0.42319944	      0.00738622	     24.47198152	     12.08163894	     -7.35511352	     -0.96968074	     -1.05662085	     -1.34038892	    -29.56323046	    -39.29193419	     21.52941564	     87.47592127	     72.47844206	    -36.50639902	    -32.14315247	      9.68480509	     94.90568723	     73.20180182
      0.23333330	      6.16535720	      1.52596294	     15.44770661	     -0.13452628	      1.30218222	      0.34902127	    -10.97490495	     -1.85669226	     -2.11247315	      2.18289627	      0.03809873	     20.68722193	      6.76703386	     -7.35527298	    -12.00944361	     -0.63508392	      1.27716716	      0.44670235	      0.00779643	     24.43705222	     12.10729260	     -7.35527298	     -1.06947335	     -1.02849653	     -1.30129153	    -29.47896686	    -39.24955339	     21.55407270	     87.51249572	     72.49384786	    -36.46878168	    -32.17061615	      9.66458239	     94.88776554	     73.21070623
      0.25000000	      6.32845860	      1.58485774	     15.44667438	     -0.13485610	      1.30205007	      0.34923958	    -11.21063987	     -1.84612884	     -2.12676188	      2.17064415	      0.03788489	     20.44689182	      6.36977705	     -7.37032501	    -12.21113975	     -0.64542862	      1.38561520	      0.45069377	      0.00786609	     24.05641760	     12.02757428	     -7.37032501	     -1.34624906	     -1.03523191	     -1.34827411	    -29.10568054	    -39.38992053	     22.16370548	     87.55263990	     72.03248877	    -36.18445857	    -32.24509225	      9.97020930	     94.60945504	     72.64447138
      0.26666670	      6.46175218	      1.65816801	     15.43834411	     -0.13483387	      1.30274402	      0.34925764	    -11.42697603	     -1.89977551	     -2.36335311	      2.26086808	      0.03945959	     20.48837446	      6.43677156	     -7.38500277	    -12.39952491	     -0.62701513	      1.51983777	      0.46494145	      0.00811476	     24.04154327	     11.98603324	     -7.38500277	     -1.60196879	     -1.07196127	     -1.67749805	    -28.44477911	    -39.83711725	     23.16205210	     87.59635763	     72.78770899	    -36.51626585	    -32.04959868	      9.61294992	     94.62428061	     73.27710093
      0.28333330	      6.43404929	      1.68187088	     15.38797120	     -0.13451986	      1.30464272	      0.34915182	    -11.49740644	     -1.94856701	     -2.49859877	      2.35944976	      0.04118017	     20.42778968	      6.29725739	     -7.42152858	    -12.37777746	     -0.60732237	      1.50548081	      0.48078029	      0.00839120	     23.99933974	     12.05049548	     -7.42152858	     -1.65663317	     -1.13424112	     -2.20462119	    -27.35574835	    -40.32731423	     24.55546939	     87.34728584	     74.02471057	    -37.14090860	    -31.50838167	      8.77021032	     94.61636704	     74.94237067
      0.30000000	      6.37027246	      1.67596711	     15.33960953	     -0.13439994	      1.30221969	      0.34920157	    -11.47742327	     -1.97324993	     -2.58003530	      2.49166936	      0.04348783	     20.33644959	      6.03381523	     -7.43380310	    -12.31335746	     -0.59943786	      1.46129366	      0.48491928	      0.00846344	     24.03475551	     12.20182071	     -7.43380310	     -1.61403303	     -1.09663400	     -2.08283444	    -27.48432979	    -40.50273171	     24.69393576	     87.48588095	     73.22544033	    -37.29222456	    -31.50672971	      8.88035538	     94.66455416	     74.13933812
